<svg width="265" height="265" viewBox="0 0 265 265" fill="none" xmlns="http://www.w3.org/2000/svg">
<path d="M107.656 198.75C107.656 200.946 106.784 203.053 105.231 204.606C103.678 206.159 101.572 207.031 99.3752 207.031H82.8127C80.6164 207.031 78.51 206.159 76.957 204.606C75.4039 203.053 74.5314 200.946 74.5314 198.75C74.5314 196.554 75.4039 194.447 76.957 192.894C78.51 191.341 80.6164 190.469 82.8127 190.469H99.3752C101.572 190.469 103.678 191.341 105.231 192.894C106.784 194.447 107.656 196.554 107.656 198.75ZM182.188 190.469H165.625C163.429 190.469 161.322 191.341 159.769 192.894C158.216 194.447 157.344 196.554 157.344 198.75C157.344 200.946 158.216 203.053 159.769 204.606C161.322 206.159 163.429 207.031 165.625 207.031H182.188C184.384 207.031 186.49 206.159 188.043 204.606C189.596 203.053 190.469 200.946 190.469 198.75C190.469 196.554 189.596 194.447 188.043 192.894C186.49 191.341 184.384 190.469 182.188 190.469ZM103.516 140.781C105.973 140.781 108.374 140.053 110.417 138.688C112.46 137.323 114.052 135.383 114.992 133.113C115.932 130.843 116.178 128.346 115.699 125.936C115.22 123.526 114.037 121.313 112.299 119.576C110.562 117.839 108.349 116.655 105.939 116.176C103.53 115.697 101.032 115.943 98.7622 116.883C96.4924 117.823 94.5523 119.415 93.1874 121.458C91.8225 123.501 91.0939 125.903 91.0939 128.359C91.0939 131.654 92.4027 134.813 94.7322 137.143C97.0618 139.473 100.221 140.781 103.516 140.781ZM161.485 140.781C163.941 140.781 166.343 140.053 168.386 138.688C170.429 137.323 172.021 135.383 172.961 133.113C173.901 130.843 174.147 128.346 173.668 125.936C173.188 123.526 172.005 121.313 170.268 119.576C168.531 117.839 166.318 116.655 163.908 116.176C161.498 115.697 159.001 115.943 156.731 116.883C154.461 117.823 152.521 119.415 151.156 121.458C149.791 123.501 149.063 125.903 149.063 128.359C149.063 131.654 150.371 134.813 152.701 137.143C155.031 139.473 158.19 140.781 161.485 140.781ZM252.982 126.413C251.429 128.315 249.473 129.848 247.254 130.9C245.036 131.953 242.612 132.5 240.156 132.5H207.031V165.625C213.984 170.839 219.119 178.109 221.711 186.404C224.302 194.699 224.217 203.599 221.469 211.844C218.721 220.088 213.448 227.259 206.398 232.34C199.348 237.422 190.878 240.156 182.188 240.156H82.8127C74.1222 240.156 65.6521 237.422 58.602 232.34C51.552 227.259 46.2794 220.088 43.5313 211.844C40.7831 203.599 40.6987 194.699 43.2899 186.404C45.8811 178.109 51.0166 170.839 57.9689 165.625V132.5H24.8439C22.408 132.496 20.003 131.955 17.8002 130.915C15.5975 129.875 13.6512 128.362 12.1002 126.484C10.5491 124.605 9.43147 122.408 8.82687 120.048C8.22227 117.689 8.14561 115.225 8.60234 112.832C11.2577 99.7067 18.3652 87.9014 28.7226 79.4133C39.0801 70.9251 52.0516 66.2752 65.4428 66.25H67.1404C61.6141 60.8632 57.2226 54.424 54.2251 47.3125C51.2276 40.201 49.6848 32.5612 49.6877 24.8438C49.6877 22.6474 50.5602 20.5411 52.1132 18.988C53.6663 17.435 55.7726 16.5625 57.9689 16.5625C60.1653 16.5625 62.2716 17.435 63.8247 18.988C65.3777 20.5411 66.2502 22.6474 66.2502 24.8438C66.2502 35.8254 70.6126 46.3572 78.3778 54.1224C86.143 61.8876 96.6748 66.25 107.656 66.25H157.344C162.781 66.25 168.166 65.179 173.189 63.0981C178.213 61.0173 182.778 57.9673 186.623 54.1224C190.468 50.2775 193.517 45.7129 195.598 40.6892C197.679 35.6656 198.75 30.2813 198.75 24.8438C198.75 22.6474 199.623 20.5411 201.176 18.988C202.729 17.435 204.835 16.5625 207.031 16.5625C209.228 16.5625 211.334 17.435 212.887 18.988C214.44 20.5411 215.313 22.6474 215.313 24.8438C215.316 32.5612 213.773 40.201 210.775 47.3125C207.778 54.424 203.386 60.8632 197.86 66.25H199.558C212.949 66.2752 225.92 70.9251 236.278 79.4133C246.635 87.9014 253.743 99.7067 256.398 112.832C256.868 115.208 256.806 117.658 256.215 120.006C255.624 122.355 254.52 124.543 252.982 126.413ZM74.5314 158.172C77.2577 157.623 80.0317 157.345 82.8127 157.344H182.188C184.969 157.345 187.743 157.623 190.469 158.172V107.656C190.469 101.067 187.851 94.7482 183.192 90.0891C178.533 85.43 172.214 82.8125 165.625 82.8125H99.3752C92.7862 82.8125 86.4671 85.43 81.808 90.0891C77.1489 94.7482 74.5314 101.067 74.5314 107.656V158.172ZM57.9689 115.938V107.656C57.9539 98.6947 60.8613 89.9727 66.2502 82.8125H65.4221C55.8813 82.828 46.6372 86.1305 39.2464 92.1639C31.8555 98.1972 26.7692 106.593 24.8439 115.938H57.9689ZM207.031 198.75C207.031 192.161 204.414 185.842 199.755 181.183C195.096 176.524 188.777 173.906 182.188 173.906H82.8127C76.2237 173.906 69.9046 176.524 65.2455 181.183C60.5864 185.842 57.9689 192.161 57.9689 198.75C57.9689 205.339 60.5864 211.658 65.2455 216.317C69.9046 220.976 76.2237 223.594 82.8127 223.594H182.188C188.777 223.594 195.096 220.976 199.755 216.317C204.414 211.658 207.031 205.339 207.031 198.75ZM240.156 115.938C238.233 106.592 233.147 98.1952 225.756 92.1616C218.365 86.1279 209.12 82.8261 199.578 82.8125H198.75C204.139 89.9727 207.046 98.6947 207.031 107.656V115.938H240.156Z" fill="currentColor"/>
</svg>
