<svg width="96" height="90" viewBox="0 0 96 90" fill="none" xmlns="http://www.w3.org/2000/svg">
<ellipse cx="47.7594" cy="45" rx="47.7594" ry="45" fill="currentColor"/>
<path d="M38.2074 88.9386L38.9799 86.8761C39.8407 84.5777 39.6125 82.013 38.3595 79.9027V79.9027C37.0673 77.7263 34.8316 76.2794 32.3169 75.992L31.3045 75.8763C29.8121 75.7058 28.5358 74.7252 27.9866 73.3271L26.8851 70.5235C26.6931 70.0347 26.9118 69.4807 27.3859 69.2549L29.9543 68.0319C30.6283 67.711 31.1584 67.1502 31.4411 66.4593L32.9122 62.8633C32.9122 62.8633 34.7706 60.9355 36.3084 60.3161C38.5383 59.418 39.7046 60.5284 42.2518 59.8916C44.5178 59.3251 45.0112 53.9482 45.648 54.585C46.0725 55.0095 46.4396 56.1648 46.9216 57.1322C47.4712 58.2352 47.3473 59.6811 48.1952 60.9529C49.0442 62.2265 49.0442 61.3775 50.9546 64.1369C54.5173 69.2829 55.6165 77.0737 56.6858 83.2407C57.1304 85.8053 57.7357 88.9386 57.7357 88.9386M39.0678 59.997V55.0154C39.0678 51.8062 36.53 49.1939 33.3724 48.6207C31.7993 48.3351 30.1713 47.9322 28.8792 47.368C25.0807 45.7095 22.5376 44.5442 20.3886 41.0001C19.2466 39.1167 18.4782 35.6935 18.4782 35.6935C18.4782 35.6935 17.0199 31.7616 18.4782 30.1746C19.4894 29.0743 20.5926 28.8719 22.0867 28.901C23.5029 28.9286 24.0828 29.9602 25.4829 30.1746C28.4891 30.6351 32.9122 27.8397 32.9122 27.8397L41.4027 23.5944C41.4027 23.5944 45.7354 20.8008 48.832 19.7737C51.162 19.0009 52.5435 18.7289 54.9876 18.5001C57.051 18.3069 58.2689 18.0611 60.2942 18.5001C61.6786 18.8002 62.4406 19.1072 63.6905 19.7737C65.1534 20.5538 65.9526 21.1116 67.0867 22.3209C69.0395 24.4032 69.5933 26.1278 70.2707 28.901C71.0378 32.0416 70.1208 33.9499 70.2707 37.1793C70.4562 41.1755 70.2726 43.5104 71.332 47.368C72.3439 51.0528 73.818 52.789 75.365 56.2831C77.6652 61.4784 80.7645 69.9667 82.5706 75.3537" stroke="white" stroke-linejoin="round"/>
<path d="M35.2471 65.1984C35.2471 65.1984 36.2063 64.4109 36.9452 64.3493C37.8349 64.2752 39.0678 65.1984 39.0678 65.1984M44.799 25.7172C44.799 25.7172 46.7787 24.4436 48.1952 24.4436C49.6117 24.4436 51.5914 25.7172 51.5914 25.7172M60.082 23.3823C60.082 23.3823 57.7994 25.4082 56.6857 26.9908C55.5124 28.6583 54.6541 29.6444 54.3508 31.6606C54.0244 33.831 53.8891 35.5993 55.4122 37.1795C56.7403 38.5574 58.1684 38.6412 60.082 38.6653C62.0747 38.6905 63.5709 38.6046 64.9641 37.1795C66.1919 35.9234 66.115 34.6585 66.4499 32.9342C66.8925 30.6558 66.4499 26.9908 66.4499 26.9908" stroke="white" stroke-linejoin="round"/>
<path d="M18.0537 33.7832C18.0537 33.7832 19.8925 33.8227 21.0254 33.5709C22.292 33.2895 23.9971 32.2974 23.9971 32.2974" stroke="white"/>
</svg>
