<svg width="43" height="43" viewBox="0 0 43 43" fill="none" xmlns="http://www.w3.org/2000/svg">
<path fill-rule="evenodd" clip-rule="evenodd" d="M26.8747 1.80062C22.4851 1.58741 19.4169 5.2872 20.3109 9.56123L20.3772 9.87208C20.5268 10.5592 21.0867 11.1872 21.9297 11.2284C26.3193 11.4416 29.3875 7.74089 28.4935 3.46777L28.4272 3.15602C28.2767 2.46981 27.7168 1.84183 26.8747 1.80062ZM39.2784 5.59268C39.6627 5.7131 40.0151 5.91836 40.3094 6.1933C40.6037 6.46823 40.8325 6.8058 40.9788 7.18105C41.1251 7.5563 41.1852 7.95963 41.1546 8.36123C41.1241 8.76283 41.0036 9.15242 40.8022 9.5012L40.5603 9.91956C38.8493 12.883 35.1549 14.3226 31.8887 13.3004L31.4282 13.1562C31.0439 13.0357 30.6917 12.8303 30.3975 12.5554C30.1032 12.2804 29.8746 11.9428 29.7283 11.5676C29.5821 11.1923 29.5221 10.789 29.5528 10.3875C29.5834 9.98594 29.7039 9.59641 29.9053 9.24768L30.1463 8.82933C31.8573 5.86591 35.5517 4.42631 38.8179 5.44845L39.2784 5.59268ZM26.7313 16.9133C29.8175 14.2993 34.4937 15.041 36.7082 18.4022L36.8695 18.6486C37.2502 19.238 37.2726 20.0953 36.6043 20.6606C33.5182 23.2746 28.8428 22.5329 26.6274 19.1717L26.4662 18.9254C26.0846 18.3359 26.0631 17.4786 26.7313 16.9133ZM18.6599 23.0462C21.9718 20.1392 26.9526 20.7 29.2397 24.3362L29.4045 24.5996C29.7987 25.2392 29.7548 26.1001 29.1071 26.669C25.7952 29.5768 20.8144 29.016 18.5273 25.379L18.3625 25.1156C17.9683 24.476 18.0122 23.6151 18.6599 23.0462ZM16.5627 7.2446C15.9769 6.60229 15.1097 6.56825 14.462 6.90239L14.161 7.05916C10.0635 9.21543 9.11299 14.2187 12.2511 17.6622C12.837 18.3046 13.705 18.3386 14.3518 18.0045L14.6537 17.8468C18.7513 15.6914 19.7017 10.6873 16.5627 7.2446ZM6.78114 14.2706C10.9181 16.5747 11.6186 21.7042 8.36497 25.1066L8.12489 25.3566C7.61157 25.8842 6.77039 26.1297 6.00445 25.7024C1.86749 23.3974 1.16695 18.2687 4.42062 14.8663L4.6607 14.6173C5.17312 14.0888 6.0143 13.8433 6.78024 14.2706M23.1614 31.5826C20.6038 27.6311 15.451 27.1276 12.2529 30.6196C11.6607 31.2664 11.7046 32.1416 12.0997 32.7624C12.1564 32.852 12.2188 32.949 12.2869 33.0536C14.8454 37.006 19.9974 37.5094 23.1964 34.0175C23.7876 33.3707 23.7437 32.4946 23.3487 31.8746C23.2919 31.7851 23.2295 31.6871 23.1614 31.5826ZM26.9365 14.9541C27.1354 14.8285 27.3077 14.6649 27.4434 14.4727C27.5791 14.2805 27.6756 14.0634 27.7274 13.8339C27.7793 13.6044 27.7854 13.3669 27.7454 13.1351C27.7055 12.9032 27.6202 12.6815 27.4946 12.4825C27.369 12.2836 27.2054 12.1114 27.0132 11.9757C26.8209 11.8399 26.6039 11.7434 26.3744 11.6916C26.1449 11.6398 25.9074 11.6337 25.6755 11.6736C25.4437 11.7136 25.2219 11.7988 25.023 11.9244C20.0165 15.0926 15.5171 18.9986 11.6769 23.5102C8.08995 27.7144 5.65239 31.7447 4.10887 34.7315C3.49805 35.9079 2.93677 37.1093 2.42649 38.3327C2.2348 38.7995 2.05586 39.2715 1.88989 39.7481C1.56201 40.6816 2.07801 41.6992 3.01774 42.0128C3.95568 42.3254 4.95991 41.8139 5.28957 40.8813C5.42813 40.4854 5.57744 40.0921 5.73749 39.7015C6.06268 38.915 6.57062 37.7719 7.29176 36.3762C9.25543 32.6043 11.6411 29.0676 14.4029 25.834C18.0094 21.5962 22.2352 17.9273 26.9374 14.9515" fill="currentColor"/>
</svg>
