<svg width="275" height="189" viewBox="0 0 275 180" fill="none" xmlns="http://www.w3.org/2000/svg">
<path d="M66.5 7C62.4828 9.42898 59.5 13 59.5 13C59.5 13 84.8769 19.5844 101.5 20C121.5 20.5 140.5 16 140.5 16C140.5 16 136.011 14.2721 131 11.9999C127.731 10.5174 123.351 9.28659 120 7.99992C115.561 6.29566 112.096 5.7194 107.5 4.49998C101.76 2.97698 96.9363 1.16739 91 1.00005C85.3094 0.839641 77 2.5 77 2.5C77 2.5 70.1987 4.76355 66.5 7Z" fill="#FAD6D6"/>
<path d="M19.4237 12.9C12.424 14.4 8.39922 16.0289 1.42397 16.9C-54.3794 23.8691 -9.35183 101.521 0.423962 156.9C1.92443 165.4 1.42416 168.4 8.92416 176.4C16.4242 184.4 24.6533 188.615 36.424 189.4C58.9238 190.9 97.4241 189.4 97.4241 189.4H140.924C158.01 189.4 167.233 189.614 184.424 189.4C207.662 189.111 223.137 196.641 244.424 188.9C260.924 182.9 269.424 176.9 274.424 156.9C287.352 105.185 325.112 36.9001 274.424 20.4C271.541 19.4617 269.861 19.1481 266.924 18.4C262.839 17.3597 260.531 16.8492 256.424 15.9C251.162 14.6838 248.164 14.2087 242.924 12.9C238.604 11.821 236.278 11.8315 231.924 10.9C226.524 9.74466 223.344 8.95884 217.924 7.89999C212.393 6.81952 209.42 5.64398 203.924 4.39999C200.226 3.56311 198.188 2.84949 194.424 2.39999C189.383 1.79808 186.48 1.93996 181.424 2.39999C176.884 2.81305 174.32 3.19462 169.924 4.39999C164.434 5.90533 161.766 7.93373 156.424 9.89999C149.121 12.5875 145.017 14.2017 137.424 15.9C130.875 17.3646 127.117 17.928 120.424 18.4C114.191 18.8395 110.673 19.4 104.424 19.4C99.3474 19.4 96.4825 18.8279 91.4237 18.4C85.8897 17.9319 82.8811 16.9307 77.4237 15.9C71.5536 14.7913 68.2681 14.1369 62.4237 12.9C57.1401 11.7817 54.2979 10.4351 48.9238 9.89999C44.4548 9.45503 41.9056 9.61365 37.4237 9.89999C30.3118 10.3544 26.3919 11.4067 19.4237 12.9Z" fill="url(#paint0_linear_57_81)"/>
<defs>
<linearGradient id="paint0_linear_57_81" x1="136.736" y1="2.40764" x2="139.111" y2="187.892" gradientUnits="userSpaceOnUse">
<stop stop-color="#F13F3F"/>
<stop offset="0.509615" stop-color="#FF6B6B"/>
<stop offset="1" stop-color="#FF7474"/>
</linearGradient>
</defs>
</svg>
