<svg width="275" height="190" viewBox="0 0 275 185" fill="none" xmlns="http://www.w3.org/2000/svg">
<path d="M66.5 7C62.4828 9.42898 59.5 13 59.5 13C59.5 13 84.8769 19.5844 101.5 20C121.5 20.5 140.5 16 140.5 16C140.5 16 136.011 14.2721 131 11.9999C127.731 10.5174 123.351 9.28659 120 7.99992C115.561 6.29566 112.096 5.7194 107.5 4.49998C101.76 2.97698 96.9363 1.16739 91 1.00005C85.3094 0.839641 77 2.5 77 2.5C77 2.5 70.1987 4.76355 66.5 7Z" fill="#FADED6"/>
<path d="M242 14.0109C237.983 16.4398 235 20.0108 235 20.0108C235 20.0108 260.377 26.5953 277 27.0108C297 27.5108 316 23.0108 316 23.0108C316 23.0108 311.511 21.283 306.5 19.0108C303.231 17.5283 298.851 16.2975 295.5 15.0108C291.061 13.3065 287.596 12.7303 283 11.5108C277.26 9.98785 272.436 8.17826 266.5 8.01092C260.809 7.85051 252.5 9.51086 252.5 9.51086C252.5 9.51086 245.699 11.7744 242 14.0109Z" fill="#FADED6"/>
<path d="M19.4999 13.4999C12.5001 15 8.47539 16.6289 1.50014 17.5C-54.3032 24.469 -9.27566 102.121 0.500134 157.5C2.0006 166 1.50034 169 9.00034 177C16.5003 185 24.7295 189.215 36.5001 190C59 191.5 97.5003 190 97.5003 190H141C158.086 190 167.309 190.214 184.5 190C207.738 189.711 223.213 197.241 244.5 189.5C261 183.5 269.5 177.5 274.5 157.5C287.428 105.785 325.189 37.5 274.5 20.9999C271.618 20.0617 269.937 19.748 267 18.9999C262.915 17.9597 260.607 17.4491 256.5 16.4999C251.238 15.2838 248.24 14.8086 243 13.4999C238.68 12.421 236.354 12.4315 232 11.5C226.6 10.3446 223.42 9.55879 218 8.49994C212.469 7.41947 209.497 6.24393 204 4.99994C200.302 4.16306 198.264 3.44944 194.5 2.99994C189.459 2.39803 181.5 2.99994 181.5 2.99994C181.5 2.99994 174.396 3.79456 170 4.99994C164.51 6.50527 161.842 8.53368 156.5 10.4999C149.198 13.1875 145.093 14.8017 137.5 16.4999C130.951 17.9645 127.194 18.5279 120.5 18.9999C114.267 19.4395 110.749 20 104.5 20C99.4235 20 96.5587 19.4278 91.4999 18.9999C85.9658 18.5319 82.9572 17.5307 77.4999 16.4999C71.6298 15.3912 68.3443 14.7369 62.4999 13.4999C57.2163 12.3817 54.374 11.035 48.9999 10.4999C44.531 10.055 41.9818 10.2136 37.4999 10.4999C30.388 10.9543 26.4681 12.0067 19.4999 13.4999Z" fill="url(#paint0_linear_57_95)"/>
<defs>
<linearGradient id="paint0_linear_57_95" x1="136.813" y1="3.00761" x2="139.187" y2="188.492" gradientUnits="userSpaceOnUse">
<stop stop-color="#F15A3F"/>
<stop offset="0.509615" stop-color="#FF956B"/>
<stop offset="1" stop-color="#FFB174"/>
</linearGradient>
</defs>
</svg>
