<svg width="275" height="181" viewBox="0 0 275 177" fill="none" xmlns="http://www.w3.org/2000/svg">
<path d="M199 9.28284C194.983 11.7118 192 15.2828 192 15.2828C192 15.2828 217.377 21.8673 234 22.2828C254 22.7828 275.5 17.772 275.5 17.772C275.5 17.772 274.511 14.0441 269.5 11.772C266.231 10.2895 263.495 9.0882 259.5 7.77197C253.787 5.8896 254.5 5.27196 241.5 3.77196C228.5 2.27197 229 3 223.5 2.99995C217.807 2.99989 209.5 4.78284 209.5 4.78284C209.5 4.78284 202.699 7.04639 199 9.28284Z" fill="#DCFAD6"/>
<path d="M274.5 148.5C287.428 96.785 325.189 28.5001 274.5 12C274.5 12 257.239 16.0859 246 16C235.341 15.9186 229.562 13.4341 219 12C207.888 10.4913 201.63 9.86684 190.5 8.50001C179.37 7.13319 173.137 6.3122 162 5.00001C151.657 3.78127 145.874 2.91831 135.5 2.00001C126.922 1.24073 122.106 0.81716 113.5 0.500014C103.353 0.126073 97.6492 0.199126 87.5 0.500014C77.5288 0.795625 71.9449 1.21807 62 2.00001C50.4557 2.90771 44.014 3.76625 32.5 5.00001C20.3862 6.29805 1.50014 8.50001 1.50014 8.50001C-54.3032 15.4691 -9.27566 93.1207 0.500134 148.5C2.0006 157 1.50034 160 9.00034 168C16.5003 176 24.7295 180.215 36.5001 181C59 182.5 97.5003 181 97.5003 181H141C158.086 181 167.309 181.214 184.5 181C207.738 180.711 223.213 188.241 244.5 180.5C261 174.5 269.5 168.5 274.5 148.5Z" fill="url(#paint0_linear_57_94)"/>
<defs>
<linearGradient id="paint0_linear_57_94" x1="136.813" y1="0.639626" x2="139.025" y2="179.652" gradientUnits="userSpaceOnUse">
<stop stop-color="#AFDF2C"/>
<stop offset="0.509615" stop-color="#BDDF5E"/>
<stop offset="1" stop-color="#D7E596"/>
</linearGradient>
</defs>
</svg>
