<svg width="275" height="186" viewBox="0 0 275 180" fill="none" xmlns="http://www.w3.org/2000/svg">
<path d="M-0.499855 4C-1.98397 8.45365 -2 13.5 -2 13.5C-2 13.5 30.4915 22.0076 47 24C76 27.5 96.5 23 96.5 23C96.5 23 89.011 15.2722 84 13C80.7306 11.5176 68.3513 7.28671 65 6.00004C60.561 4.29578 52.5 2.50004 47.5 2.0001C41.5908 1.40925 35.4363 1.17829 29.5 1.01095C23.8094 0.850541 13 1.5 13 1.5C13 1.5 0 2.5 -0.499855 4Z" fill="#CEF6FF"/>
<path d="M274.424 153.9C287.352 102.185 325.112 33.9 274.424 17.3999C274.424 17.3999 258.605 23.7136 245 22.5C235.5 21.6525 226.13 17.9484 214.5 15.5C205 13.5 205 13 189 11.4999C181.029 10.7526 176.5 10.4999 168.5 9.49995L167.953 9.43152C157.579 8.13351 151.025 7.31336 140.924 10.4999C133 13 128.642 14.7572 119.5 17.5C109.5 20.5 103.886 21.5163 94 22.9999C85.4686 24.2804 80.6175 24.5969 72 25C62.8327 25.4287 55.6224 24.0035 46.5001 22.9999C38.7729 22.1499 34.6277 20.5005 27.0001 18.9999C16.4784 16.93 0.000278473 13.9999 0.000278473 13.9999C-55.8031 20.969 -9.35177 98.5207 0.424023 153.9C1.92449 162.4 1.42423 165.4 8.92423 173.4C16.4242 181.4 24.6534 185.615 36.424 186.4C58.9239 187.9 97.4242 186.4 97.4242 186.4H140.924C158.01 186.4 167.233 186.614 184.424 186.4C207.662 186.111 223.137 193.641 244.424 185.9C260.924 179.9 269.424 173.9 274.424 153.9Z" fill="url(#paint0_linear_57_93)"/>
<defs>
<linearGradient id="paint0_linear_57_93" x1="136.239" y1="8.93468" x2="138.375" y2="185.122" gradientUnits="userSpaceOnUse">
<stop stop-color="#3BE2EE"/>
<stop offset="0.509615" stop-color="#5BD9D9"/>
<stop offset="1" stop-color="#86EAD6"/>
</linearGradient>
</defs>
</svg>
